<?xml version="1.0" encoding="UTF-8"?>
<svg version="1.1" xmlns="http://www.w3.org/2000/svg" width="3375" height="938">
<path d="M0 0 C0.82407882 -0.00780003 1.64815764 -0.01560005 2.49720855 -0.02363644 C12.42854196 0.00029 18.92138012 3.1965092 26.10841656 10.02863026 C31.8471993 16.47155812 34.57586052 25.11414672 34.24611187 33.69708729 C33.39569113 42.95134385 28.7615703 51.15702452 24.58528423 59.28436756 C22.75228081 62.85220589 20.94616077 66.4336608 19.13576031 70.01300526 C18.77573925 70.72292622 18.41571819 71.43284718 18.04478741 72.16428089 C15.15338187 77.87507884 12.37203671 83.63271887 9.64357281 89.42316151 C4.9193588 99.41633901 -0.02141411 109.29570403 -4.98142719 119.17316151 C-9.89965484 128.96745841 -14.79954611 138.76293372 -19.48142719 148.67316151 C-24.54299683 159.38708335 -29.86114545 169.9679003 -35.17820454 180.55646229 C-39.69613533 189.55709996 -44.17928417 198.56673258 -48.48142719 207.67316151 C-53.54299683 218.38708335 -58.86114545 228.9679003 -64.17820454 239.55646229 C-68.69613533 248.55709996 -73.17928417 257.56673258 -77.48142719 266.67316151 C-82.16330843 276.58338961 -87.06321115 286.3788587 -91.98142719 296.17316151 C-96.87873992 305.9258624 -101.75894084 315.67908213 -106.41892719 325.54816151 C-111.6807124 336.68978289 -117.22178454 347.68831578 -122.7496767 358.69940662 C-127.86096854 368.8843727 -132.90464011 379.09075414 -137.77048969 389.39581776 C-142.41996036 399.19240887 -147.31253344 408.86680162 -152.17847919 418.5570116 C-156.69631848 427.55746607 -161.17937164 436.56691773 -165.48142719 445.67316151 C-170.54171374 456.38436742 -175.85840293 466.96255808 -181.17417622 477.54840565 C-185.77706902 486.71816079 -190.33876166 495.90022036 -194.73142719 505.17316151 C-196.47784295 508.84154612 -198.2284957 512.50788623 -199.98142719 516.17316151 C-200.81649799 517.92258045 -200.81649799 517.92258045 -201.66843891 519.70734119 C-203.18381433 522.87361046 -204.71729964 526.03067207 -206.260602 529.18341541 C-207.13754485 530.98373513 -207.99971257 532.79122881 -208.86131001 534.59894276 C-213.55493517 544.13502207 -218.99661751 552.73546831 -228.98142719 557.17316151 C-237.8554133 559.06920214 -250.19109244 560.3916512 -258.24314594 555.53644276 C-258.81677876 555.08655994 -259.39041157 554.63667713 -259.98142719 554.17316151 C-260.92147602 553.43879871 -261.86152485 552.70443592 -262.83006001 551.94781971 C-265.84567813 549.42325427 -267.95632915 546.70370715 -270.14158344 543.41534901 C-270.52014484 542.85160069 -270.89870625 542.28785236 -271.2887392 541.70702076 C-272.54895488 539.82625298 -273.79623921 537.93725846 -275.04392719 536.04816151 C-275.94817243 534.69393181 -276.85339322 533.34035309 -277.75950336 531.98737049 C-279.74813564 529.01620557 -281.7321841 526.04204374 -283.71384907 523.06622791 C-287.20433324 517.83143209 -290.72381935 512.61642197 -294.24705219 507.40363026 C-294.86539433 506.48865772 -295.48373646 505.57368519 -296.12081623 504.63098621 C-297.37908879 502.76915417 -298.63738457 500.90733783 -299.89570332 499.04553699 C-308.54764413 486.23836672 -317.17722485 473.41701791 -325.72874165 460.54254627 C-332.59622692 450.21907145 -339.54395769 439.94966904 -346.48142719 429.67316151 C-354.59669763 417.6519717 -362.70283854 405.62615963 -370.72752094 393.54425526 C-377.59561034 383.22034075 -384.54356525 372.95025035 -391.48142719 362.67316151 C-399.59669763 350.6519717 -407.70283854 338.62615963 -415.72752094 326.54425526 C-422.59561034 316.22034075 -429.54356525 305.95025035 -436.48142719 295.67316151 C-444.59669763 283.6519717 -452.70283854 271.62615963 -460.72752094 259.54425526 C-467.59561034 249.22034075 -474.54356525 238.95025035 -481.48142719 228.67316151 C-489.59669763 216.6519717 -497.70283854 204.62615963 -505.72752094 192.54425526 C-512.59561143 182.22033911 -519.5437322 171.9503649 -526.48142719 161.67316151 C-544.62556509 134.79268218 -544.62556509 134.79268218 -551.19114399 124.86969471 C-554.48982151 119.88696729 -557.8238636 114.93155428 -561.20437336 110.00409412 C-563.24035888 107.03214624 -565.26420924 104.05202853 -567.28712177 101.07117176 C-568.27647368 99.61977498 -569.27116998 98.17200399 -570.27167988 96.72827625 C-577.72569767 85.96611844 -583.24396791 76.69130168 -581.62205219 63.09894276 C-579.67675104 54.21461003 -574.65129189 46.41278284 -567.04392719 41.42316151 C-561.5276227 38.02502732 -556.0579173 36.9100986 -549.64494324 36.44329834 C-548.92738259 36.38906258 -548.20982195 36.33482681 -547.47051705 36.27894754 C-545.07154818 36.09980364 -542.67192798 35.93205012 -540.27212238 35.76451588 C-538.53458315 35.63771061 -536.79708331 35.51036463 -535.05962008 35.38252228 C-529.36773363 34.96714516 -523.67467589 34.56935778 -517.98142719 34.17316151 C-516.05776329 34.03844278 -514.13410182 33.90368933 -512.21044278 33.76890111 C-498.43676179 32.80642497 -484.66096442 31.875943 -470.88475311 30.95050299 C-464.73153486 30.53674284 -458.57846227 30.12082598 -452.4253664 29.70525074 C-438.3596724 28.75571882 -424.29376852 27.8093235 -410.22782174 26.86354566 C-403.25582228 26.39473656 -396.2838516 25.92549998 -389.31188281 25.45623502 C-365.37495137 23.84512862 -341.43795712 22.2349591 -317.50077248 20.62761879 C-316.00715837 20.52732266 -314.51354427 20.42702627 -313.0199302 20.32672964 C-312.27939929 20.27700297 -311.53886838 20.2272763 -310.77589715 20.17604276 C-307.02531514 19.92419051 -303.27473337 19.67233479 -299.5241518 19.42047596 C-298.7799143 19.37049997 -298.0356768 19.32052397 -297.26888665 19.26903356 C-273.07859374 17.64460438 -248.88866378 16.01484738 -224.69893798 14.38199643 C-199.02522076 12.64899421 -173.3511791 10.92087877 -147.67676228 9.19827098 C-144.85672266 9.00904386 -142.0366844 8.81979653 -139.21664715 8.63053417 C-138.52245183 8.58394656 -137.82825651 8.53735894 -137.11302497 8.48935958 C-125.9878495 7.74263129 -114.86297597 6.99149461 -103.73820762 6.23872821 C-92.55992278 5.48245173 -81.38130348 4.73127624 -70.2023559 3.98484901 C-64.15800267 3.58112513 -58.11381201 3.17528556 -52.06999874 2.76355076 C-46.52640085 2.38594532 -40.98241659 2.01463599 -35.4380758 1.64810487 C-33.44479898 1.51525982 -31.45166745 1.38020976 -29.45871464 1.24258921 C-19.63830462 0.56569501 -9.8457654 0.05381488 0 0 Z M-79.49684525 62.57641983 C-80.15265486 62.62001795 -80.80846447 62.66361607 -81.4841471 62.70853534 C-83.69116711 62.8555869 -85.89805414 63.00454747 -88.10494709 63.15349293 C-89.69954926 63.26013862 -91.29415924 63.36666748 -92.88877636 63.47308928 C-97.27853278 63.76639684 -101.66817563 64.0613747 -106.05780208 64.35662019 C-110.78938501 64.67457573 -115.52107062 64.99099633 -120.25274372 65.3076067 C-129.527752 65.92847123 -138.80266399 66.55076313 -148.07754456 67.17353218 C-158.88096462 67.89888378 -169.6844782 68.62283772 -180.48799587 69.34673388 C-199.77225683 70.63893619 -219.05643129 71.932425 -238.34055805 73.2266283 C-257.04329379 74.48181204 -275.74609062 75.73608042 -294.44895649 76.98932362 C-295.59950964 77.0664201 -296.75006279 77.14351658 -297.93548118 77.22294932 C-299.08405989 77.29991341 -300.2326386 77.3768775 -301.41602272 77.45617384 C-322.71004968 78.88305308 -344.00401993 80.31077706 -365.29796324 81.73890407 C-372.82302264 82.24357089 -380.34809849 82.74799209 -387.87317944 83.25233746 C-397.05476872 83.86772275 -406.23632498 84.48359828 -415.41784107 85.1000747 C-420.09984932 85.41443099 -424.78187051 85.72859077 -429.46392918 86.04219532 C-433.75685152 86.32974285 -438.04973322 86.61788972 -442.34258426 86.90649981 C-443.88910432 87.01037161 -445.43563853 87.1140329 -446.98218887 87.21745288 C-450.40304797 87.4462653 -453.82360718 87.67811992 -457.24386966 87.9157666 C-459.7342838 88.0872743 -462.22530219 88.25022386 -464.716838 88.4045831 C-465.87183387 88.48124766 -467.02682974 88.55791222 -468.21682549 88.63689995 C-469.22440236 88.70014302 -470.23197923 88.7633861 -471.27008873 88.82854563 C-476.91399801 89.5458964 -481.09511638 91.89277539 -484.85642719 96.11066151 C-488.42609951 101.25518926 -489.52556546 104.86115757 -488.98142719 111.17316151 C-486.75156584 117.37326381 -483.29862336 122.49706894 -479.60642719 127.92316151 C-478.93305317 128.92323231 -478.25967915 129.92330311 -477.56589985 130.95367908 C-475.98586301 133.30019096 -474.40184852 135.64396034 -472.81541157 137.98614979 C-469.52526349 142.84458607 -466.24566094 147.71011929 -462.96580219 152.57550526 C-459.21739454 158.13583239 -455.46848772 163.69581102 -451.71433735 169.25226307 C-445.77987665 178.03811327 -439.86370511 186.83534265 -433.98923969 195.66144276 C-426.86626097 206.36337126 -419.6785996 217.02103787 -412.48142719 227.67316151 C-404.69722626 239.19411253 -396.9348511 250.72841094 -389.23090839 262.30321217 C-383.34102751 271.14668796 -377.39751048 279.95363981 -371.44920063 288.7578783 C-362.67536945 301.74542677 -353.91183725 314.73867704 -345.24021626 327.79474354 C-337.12568398 339.99231601 -328.90946123 352.12185406 -320.70798969 364.26105213 C-314.20191422 373.89406874 -307.72429914 383.54507702 -301.28254414 393.22122669 C-295.17191404 402.39661383 -289.02490626 411.54733839 -282.86472797 420.68951893 C-281.59393998 422.57626184 -280.32410501 424.46364695 -279.05515766 426.3516283 C-277.17845971 429.14378285 -275.29900683 431.93406447 -273.41892719 434.72394276 C-272.85947407 435.55734684 -272.30002094 436.39075092 -271.72361469 437.24940968 C-263.36625118 450.8087916 -263.36625118 450.8087916 -249.98142719 458.17316151 C-244.75457078 458.17316151 -240.40881842 457.02636919 -235.98142719 454.17316151 C-232.32310425 450.15804456 -229.79942698 446.29639908 -227.37986469 441.39581776 C-227.06192448 440.75701176 -226.74398426 440.11820576 -226.41640949 439.460042 C-225.38840589 437.38910085 -224.37225379 435.31259893 -223.35642719 433.23566151 C-222.63685268 431.77949324 -221.91671309 430.32360408 -221.1960268 428.86798573 C-216.80986142 419.98941118 -212.51203778 411.06982376 -208.27586079 402.11871815 C-204.13609894 393.40717275 -199.8104329 384.79164614 -195.48142719 376.17316151 C-190.72930114 366.71227128 -186.00735384 357.2450747 -181.48142719 347.67316151 C-176.95550044 338.10124809 -172.23354476 328.63405603 -167.48142719 319.17316151 C-162.75021473 309.75385845 -158.04807441 300.32888054 -153.54392719 290.79816151 C-148.46072412 280.04401 -143.12348107 269.42174238 -137.78593159 258.7924242 C-132.81006575 248.87952456 -127.91229339 238.94008057 -123.17283344 228.91144276 C-118.71084614 219.51422706 -114.02613937 210.23025712 -109.3571291 200.93481922 C-104.9812285 192.21932561 -100.65040359 183.49015817 -96.48142719 174.67316151 C-91.95549287 165.10123208 -87.23312139 155.63428102 -82.48142719 146.17316151 C-76.25335957 133.76863161 -70.13476589 121.32187876 -64.20896626 108.76935291 C-62.92843957 106.061095 -61.63939782 103.35701356 -60.34861469 100.65363026 C-59.51775813 98.91020138 -58.68702329 97.16671449 -57.85642719 95.42316151 C-57.47744282 94.6298241 -57.09845844 93.8364867 -56.70798969 93.01910877 C-56.18978657 91.92747425 -56.18978657 91.92747425 -55.66111469 90.81378651 C-55.35931293 90.17989002 -55.05751118 89.54599354 -54.74656391 88.89288807 C-52.69575245 84.28347008 -52.04306505 79.99897207 -53.66502094 75.11456776 C-56.41892705 69.06968673 -59.88408571 65.47404493 -66.10642719 62.86066151 C-70.58887754 61.78877121 -74.93685062 62.27072876 -79.49684525 62.57641983 Z " fill="#3994E6" transform="translate(1179.981427192688,354.82683849334717)"/>
<path d="M0 0 C0.89122559 0.00060425 1.78245117 0.0012085 2.70068359 0.00183105 C15.75798676 0.02588089 28.62208646 0.30068078 41.5625 2.1875 C42.46645508 2.31108887 43.37041016 2.43467773 44.30175781 2.56201172 C99.06270767 10.18566741 150.03484878 32.26153655 193.5625 66.1875 C194.81546875 67.15042969 194.81546875 67.15042969 196.09375 68.1328125 C215.17741845 83.04947739 233.21922841 100.67006165 247.5625 120.1875 C249.20831716 122.25001291 250.8541507 124.31251274 252.5 126.375 C269.86972163 148.76287193 298.5625 190.17037831 298.5625 219.1875 C295.76912816 219.95554607 293.13217178 220.37696084 290.24389648 220.57641602 C289.39879013 220.63640274 288.55368378 220.69638947 287.68296814 220.75819397 C286.77567459 220.81865402 285.86838104 220.87911407 284.93359375 220.94140625 C283.98871597 221.00657944 283.0438382 221.07175262 282.07032776 221.13890076 C280.06906066 221.27594504 278.06766747 221.41115835 276.06616211 221.54467773 C273.03524423 221.74763991 270.00493726 221.95835438 266.97460938 222.16992188 C265.02346949 222.30255476 263.07229845 222.43473037 261.12109375 222.56640625 C260.22796982 222.62889053 259.33484589 222.69137482 258.41465759 222.75575256 C252.12332213 223.16808775 245.86639871 223.2551385 239.5625 223.1875 C237.1780701 218.57875039 234.87048734 213.95904047 232.8359375 209.18359375 C222.1715284 184.182915 207.17019032 161.74379557 188.84375 141.69140625 C187.32710508 140.02673263 185.82686472 138.34695899 184.34375 136.65234375 C142.78471897 89.31309538 78.04596405 63.26151246 16.39453125 58.69140625 C-38.25285435 55.33305939 -95.26870832 69.81572105 -140.4375 101.1875 C-141.00871582 101.57760254 -141.57993164 101.96770508 -142.16845703 102.36962891 C-151.06058063 108.45036229 -159.35216498 115.0753752 -167.4375 122.1875 C-168.34628906 122.98414063 -169.25507813 123.78078125 -170.19140625 124.6015625 C-178.18665339 131.70573629 -185.47389617 139.00237542 -192.1640625 147.359375 C-193.61261102 149.16134945 -195.08444922 150.94501872 -196.5859375 152.703125 C-208.07717778 166.22711175 -217.2786596 181.47051337 -225.4375 197.1875 C-225.7876416 197.86039063 -226.1377832 198.53328125 -226.49853516 199.2265625 C-256.02127214 256.83190296 -260.64277511 326.33030692 -241.3984375 387.890625 C-225.8667216 435.33003938 -197.40536019 479.61128653 -157.4375 510.1875 C-156.88368652 510.61240723 -156.32987305 511.03731445 -155.75927734 511.47509766 C-99.60473929 554.31162284 -31.85792817 571.39069914 37.92871094 562.70117188 C50.82963963 560.87749854 63.52474115 557.79279324 75.91796875 553.7890625 C78.7687644 553.14058018 79.87529501 553.14517008 82.5625 554.1875 C84.13101196 555.90655518 84.13101196 555.90655518 85.64697266 558.16894531 C86.22081696 559.01362366 86.79466125 559.858302 87.38589478 560.72857666 C87.99331512 561.64830261 88.60073547 562.56802856 89.2265625 563.515625 C89.85984467 564.45678162 90.49312683 565.39793823 91.14559937 566.36761475 C92.48396197 568.36142652 93.81679964 570.35895633 95.14453125 572.35986328 C97.17517166 575.41892793 99.22267142 578.46611924 101.2734375 581.51171875 C102.57132339 583.44984426 103.868231 585.38862532 105.1640625 587.328125 C105.77553131 588.23975403 106.38700012 589.15138306 107.01699829 590.09063721 C107.58453827 590.94792419 108.15207825 591.80521118 108.73681641 592.68847656 C109.23549225 593.43824768 109.73416809 594.1880188 110.24795532 594.96051025 C111.62906772 597.30027336 112.61841891 599.64347422 113.5625 602.1875 C108.17609446 605.01097017 102.9310374 607.2697741 97.125 609.0625 C96.32078613 609.31298096 95.51657227 609.56346191 94.68798828 609.8215332 C64.18976646 619.07940712 33.81850818 623.61710413 2 623.5 C0.4153595 623.49676727 0.4153595 623.49676727 -1.20129395 623.49346924 C-60.66630518 623.2990363 -122.33173199 606.67629894 -171.4375 572.1875 C-172.81848354 571.24532102 -174.20003204 570.30396979 -175.58203125 569.36328125 C-183.57151246 563.87483959 -191.17355249 558.11838396 -198.4765625 551.74609375 C-201.15658188 549.43024586 -203.89853078 547.2442612 -206.6875 545.0625 C-211.82506496 540.88445085 -216.50428597 536.30316964 -221.1875 531.625 C-222.25145996 530.56224854 -222.25145996 530.56224854 -223.33691406 529.47802734 C-227.89640527 524.87048529 -232.22786231 520.11550376 -236.4375 515.1875 C-236.93459473 514.61314209 -237.43168945 514.03878418 -237.94384766 513.44702148 C-290.9252001 451.80099189 -316.99746353 368.56338902 -310.9375 287.74609375 C-303.71304095 205.57539183 -264.82967554 127.16609986 -201.60009766 73.63183594 C-197.62991047 70.37104149 -193.54832661 67.26774123 -189.4375 64.1875 C-188.25777764 63.28780613 -187.07809056 62.38806599 -185.8984375 61.48828125 C-141.09771221 27.6534871 -87.20480949 7.03152408 -31.4375 1.1875 C-30.14549683 1.04501831 -30.14549683 1.04501831 -28.82739258 0.8996582 C-19.23233109 -0.04021504 -9.63128443 -0.01203465 0 0 Z " fill="#7A95E0" transform="translate(625.4375,112.8125)"/>
<path d="M0 0 C44.24026589 -1.23314263 85.39521556 10.33153234 118.01416016 41.06201172 C118.60455078 41.59955078 119.19494141 42.13708984 119.80322266 42.69091797 C134.67370136 56.75092034 144.75301315 75.12179091 152.01416016 94.06201172 C152.65611328 95.70556641 152.65611328 95.70556641 153.31103516 97.38232422 C170.13122812 143.79359741 168.14138089 200.51773395 148.06884766 245.57373047 C146.21863911 249.50102006 144.17660153 253.29880206 142.01416016 257.06201172 C141.62470215 257.74231445 141.23524414 258.42261719 140.83398438 259.12353516 C135.69307379 267.97675871 130.12379884 275.65330602 123.01416016 283.06201172 C121.85935191 284.42948272 120.71245455 285.80370766 119.57666016 287.18701172 C118.73103516 288.13576172 117.88541016 289.08451172 117.01416016 290.06201172 C116.35416016 290.06201172 115.69416016 290.06201172 115.01416016 290.06201172 C115.01416016 290.72201172 115.01416016 291.38201172 115.01416016 292.06201172 C113.03381935 293.84706468 111.05475514 295.49405044 108.95166016 297.12451172 C108.00697876 297.85879395 108.00697876 297.85879395 107.04321289 298.60791016 C81.48622079 318.08772953 49.75026856 329.06786447 17.56103516 329.26513672 C16.78701355 329.27219635 16.01299194 329.27925598 15.21551514 329.28652954 C-26.33232376 329.57936904 -63.74004057 322.42082724 -96.98583984 296.06201172 C-97.92298828 295.35560547 -98.86013672 294.64919922 -99.82568359 293.92138672 C-100.89496094 293.00099609 -100.89496094 293.00099609 -101.98583984 292.06201172 C-101.98583984 291.40201172 -101.98583984 290.74201172 -101.98583984 290.06201172 C-102.56205078 289.81708984 -103.13826172 289.57216797 -103.73193359 289.31982422 C-124.0128683 278.00186759 -137.36365503 243.25883398 -143.42333984 222.21826172 C-157.23406487 171.47187674 -153.03315993 115.45002272 -127.39990234 69.13623047 C-108.9687284 37.17738336 -77.76895403 15.89395981 -42.84814453 5.80517578 C-28.89338383 2.18198476 -14.38602088 0.44923153 0 0 Z M-49.45068359 91.08544922 C-69.75347746 114.92324417 -73.88448106 147.691336 -71.67333984 177.84326172 C-69.33653033 204.1456939 -60.5088852 229.41166497 -40.36083984 247.31201172 C-26.77255271 258.186099 -10.95030067 262.65499326 6.32666016 262.49951172 C7.51074463 262.49193848 8.6948291 262.48436523 9.91479492 262.4765625 C28.20869406 262.13283841 43.27676057 256.23834317 57.01416016 244.06201172 C57.62775391 243.54251953 58.24134766 243.02302734 58.87353516 242.48779297 C75.90083022 226.98358164 83.63233035 200.18989913 85.01416016 178.06201172 C86.43497466 146.81514964 82.76951145 113.83055563 61.30322266 89.41357422 C46.87864904 74.59515559 27.99565115 67.34429906 7.51416016 66.81201172 C-14.61011309 67.02497264 -34.03873186 74.98605791 -49.45068359 91.08544922 Z " fill="#9EAF82" transform="translate(1546.98583984375,283.93798828125)"/>
<path d="M0 0 C23.1 0 46.2 0 70 0 C70.33 52.8 70.66 105.6 71 160 C80.20394131 150.15325517 80.20394131 150.15325517 89.12890625 140.12109375 C91.703929 137.20201786 94.35303175 134.35378158 97 131.5 C100.21161496 128.03714793 103.41102867 124.57351586 106.5 121 C110.10082614 116.83433839 113.85390974 112.81399952 117.59765625 108.77734375 C120.27415929 105.88618383 122.92318724 102.98101868 125.5 100 C128.69557993 96.30486291 131.99828669 92.713439 135.3125 89.125 C135.84101563 88.55265625 136.36953125 87.9803125 136.9140625 87.390625 C142.81926059 81.01240071 142.81926059 81.01240071 146.50540161 80.75949097 C148.04412394 80.75366684 149.58291131 80.75906683 151.12158203 80.77294922 C152.38023071 80.77251114 152.38023071 80.77251114 153.66430664 80.77206421 C156.44557944 80.77346067 159.22658634 80.78903665 162.0078125 80.8046875 C163.93309381 80.80841651 165.85837701 80.81126401 167.78366089 80.81326294 C172.8570477 80.82090824 177.93032044 80.8405644 183.00366211 80.8626709 C188.17820696 80.88311005 193.35277019 80.89226052 198.52734375 80.90234375 C208.68494602 80.92380946 218.84246353 80.95795619 229 81 C227.38789052 84.41221536 225.60593966 86.61583281 222.89453125 89.265625 C222.07533203 90.07386719 221.25613281 90.88210938 220.41210938 91.71484375 C219.55423828 92.55144531 218.69636719 93.38804687 217.8125 94.25 C212.56009942 99.39339611 207.43608706 104.54098356 202.65112305 110.12402344 C199.91575942 113.23189481 196.9571018 116.10510989 194 119 C188.61357955 124.31105805 188.61357955 124.31105805 183.5625 129.9375 C179.49925535 134.74896362 174.94173997 139.08176655 170.47119141 143.50927734 C166.7902331 147.16830887 163.27841337 150.87731192 159.93359375 154.84765625 C157.08047144 158.02355603 154.03342397 160.99720478 151 164 C141.88486239 172.64895487 141.88486239 172.64895487 135 183 C135.37697021 183.48243164 135.75394043 183.96486328 136.14233398 184.46191406 C142.6592797 192.80725542 149.16117826 201.15772259 155.48828125 209.6484375 C158.81508203 214.10181084 162.19185194 218.5172872 165.5625 222.9375 C166.24940918 223.83831299 166.93631836 224.73912598 167.64404297 225.66723633 C169.05831834 227.5215703 170.47270758 229.37581742 171.88720703 231.22998047 C175.25997761 235.65191888 178.62987895 240.07604218 182 244.5 C183.32941731 246.24479911 184.65884442 247.98959076 185.98828125 249.734375 C188.69442277 253.28614443 191.40010176 256.83826559 194.10546875 260.390625 C195.46613199 262.17709388 196.82680899 263.96355228 198.1875 265.75 C199.18801392 267.0637561 199.18801392 267.0637561 200.20874023 268.40405273 C203.79222117 273.10789443 207.38238205 277.80647706 210.98095703 282.4987793 C213.65999681 285.9945995 216.33070375 289.49673719 219 293 C219.66580078 293.87237305 220.33160156 294.74474609 221.01757812 295.64355469 C223.12120824 298.40420635 225.21765965 301.17017461 227.3125 303.9375 C227.97773682 304.80898682 228.64297363 305.68047363 229.32836914 306.57836914 C229.93801514 307.38653076 230.54766113 308.19469238 231.17578125 309.02734375 C231.72145752 309.74656006 232.26713379 310.46577637 232.8293457 311.20678711 C234 313 234 313 234 315 C223.35164874 315.30207229 212.70432629 315.53261854 202.05255318 315.67355824 C197.1054295 315.74122906 192.16124948 315.83288784 187.21582031 315.98071289 C182.43688272 316.12265659 177.66076268 316.19982776 172.879879 316.23340416 C171.06232208 316.25730713 169.24490867 316.30399327 167.42856216 316.37449074 C153.5915159 316.88986352 153.5915159 316.88986352 149.27112007 313.73921394 C145.78791241 310.25857393 143.42751506 306.25337078 141 302 C139.82959251 300.38497286 138.64082066 298.78272144 137.41796875 297.20703125 C136.33952403 295.74338109 135.2627076 294.27852982 134.1875 292.8125 C133.59984863 292.01352295 133.01219727 291.2145459 132.40673828 290.39135742 C127.81718354 284.14074493 123.28170285 277.85196848 118.75244141 271.55761719 C114.76087261 266.02299735 110.69195919 260.55135613 106.58496094 255.10205078 C100.94037057 247.60849759 95.38761961 240.04782429 89.83056641 232.48925781 C86.66045146 228.17844266 83.48640026 223.87052846 80.3125 219.5625 C79.7242041 218.76352295 79.1359082 217.9645459 78.52978516 217.14135742 C77.97983887 216.39474854 77.42989258 215.64813965 76.86328125 214.87890625 C76.14072144 213.89772827 76.14072144 213.89772827 75.40356445 212.89672852 C73.94431789 210.92475313 72.47190743 208.96254324 71 207 C70.67 242.64 70.34 278.28 70 315 C46.9 315 23.8 315 0 315 C0 211.05 0 107.1 0 0 Z " fill="#9EAF82" transform="translate(2874,291)"/>
<path d="M0 0 C2.20231162 1.64987992 4.23449506 3.37514311 6.2578125 5.23828125 C6.8559375 5.74617188 7.4540625 6.2540625 8.0703125 6.77734375 C24.72181366 21.86776668 29.74351479 46.35371209 30.94203091 67.80267143 C31.58846428 81.30170673 31.38329693 94.84151302 31.35920644 108.352736 C31.35288133 112.50866434 31.35236196 116.66459371 31.35118103 120.82052612 C31.34809436 128.66102865 31.33991754 136.50151694 31.32983154 144.34201324 C31.31647714 154.95761647 31.31114894 165.5732237 31.30532932 176.18883324 C31.29597533 192.8719932 31.27603882 209.55512315 31.2578125 226.23828125 C8.1578125 226.23828125 -14.9421875 226.23828125 -38.7421875 226.23828125 C-38.80277344 216.76238281 -38.86335938 207.28648437 -38.92578125 197.5234375 C-38.9663109 191.49413679 -39.00706583 185.46483897 -39.04882812 179.43554688 C-39.11496723 169.88095581 -39.18022778 160.32636496 -39.23950195 150.77172852 C-39.28269146 143.81052797 -39.32905102 136.84935662 -39.37906605 129.88820165 C-39.40539065 126.20945961 -39.4302307 122.53072231 -39.45126152 118.85194588 C-37.30588296 83.18038869 -37.30588296 83.18038869 -50.15234375 51.75390625 C-58.6311488 44.06645634 -68.92267761 43.72881238 -79.7421875 44.23828125 C-88.28922534 45.05228485 -96.48452933 47.08665671 -102.78125 53.2265625 C-111.5049797 64.27043308 -112.34256848 79.2220908 -112.28808594 92.73242188 C-112.29685191 94.20275448 -112.30734802 95.6730776 -112.31941223 97.14338684 C-112.34692361 101.07834238 -112.35068477 105.01298137 -112.34969234 108.94801903 C-112.35285193 113.08134168 -112.37853244 117.21452794 -112.40167236 121.34777832 C-112.44200523 129.14938141 -112.46251919 136.95090141 -112.47564626 144.75259256 C-112.49458454 155.31286635 -112.5446791 165.87299148 -112.59288979 176.4331646 C-112.66787235 193.03486231 -112.70169506 209.63638055 -112.7421875 226.23828125 C-136.1721875 226.23828125 -159.6021875 226.23828125 -183.7421875 226.23828125 C-183.7421875 149.01828125 -183.7421875 71.79828125 -183.7421875 -7.76171875 C-160.3121875 -7.76171875 -136.8821875 -7.76171875 -112.7421875 -7.76171875 C-112.2471875 2.63328125 -112.2471875 2.63328125 -111.7421875 13.23828125 C-110.7728125 12.08328125 -109.8034375 10.92828125 -108.8046875 9.73828125 C-82.83112767 -19.66378848 -32.22907859 -20.70557613 0 0 Z " fill="#9EAF82" transform="translate(1946.7421875,379.76171875)"/>
<path d="M0 0 C1.31186279 0.00491455 2.62372559 0.0098291 3.9753418 0.01489258 C14.01145693 0.1356008 23.50622189 0.91199599 33.25 3.3125 C33.94802734 3.47878906 34.64605469 3.64507812 35.36523438 3.81640625 C61.96393182 10.33924758 86.70214266 25.48009921 101.28173828 49.15161133 C115.25 72.71446593 115.25 72.71446593 115.25 83.3125 C89.84 83.3125 64.43 83.3125 38.25 83.3125 C36.27 79.3525 34.29 75.3925 32.25 71.3125 C26.33134202 63.23125545 19.79765741 59.1275646 10 56.9375 C-3.51353756 54.95246058 -16.4942949 57.59602635 -27.625 65.56640625 C-41.29838827 76.80170874 -45.95073742 92.29739623 -48.28515625 109.18359375 C-50.28964337 131.69375374 -47.20146806 155.41127455 -32.9453125 173.6171875 C-25.34095504 181.97882537 -14.49571232 186.82839298 -3.3125 187.52734375 C8.84927351 187.83384006 19.60301653 186.18657842 28.9375 177.9375 C34.55841687 171.55699977 36.15260841 166.83032687 39.25 158.3125 C64.66 158.3125 90.07 158.3125 116.25 158.3125 C107.72855129 188.13757049 93.65479695 212.61540586 66.28173828 228.45117188 C36.62103284 244.72865366 0.22019306 249.30718166 -32.75 241.3125 C-33.45092773 241.14621094 -34.15185547 240.97992187 -34.87402344 240.80859375 C-63.29130599 233.83661166 -88.17406649 217.24389955 -103.60546875 192.05859375 C-122.21396448 160.19268555 -126.44375645 121.03597418 -117.8359375 85.37109375 C-113.52255747 69.3975604 -106.57407897 53.92924613 -95.75 41.3125 C-95.08355469 40.51328125 -94.41710938 39.7140625 -93.73046875 38.890625 C-70.23715609 11.62991625 -35.33914102 -0.15806059 0 0 Z " fill="#9EAF82" transform="translate(2149.75,366.6875)"/>
<path d="M0 0 C17.23378812 14.67476308 30.2220363 33.35028735 35.97265625 55.53125 C35.97265625 56.52125 35.97265625 57.51125 35.97265625 58.53125 C10.56265625 58.53125 -14.84734375 58.53125 -41.02734375 58.53125 C-43.00734375 54.57125 -44.98734375 50.61125 -47.02734375 46.53125 C-52.94600173 38.45000545 -59.47968634 34.3463146 -69.27734375 32.15625 C-82.79088131 30.17121058 -95.77163865 32.81477635 -106.90234375 40.78515625 C-120.57573202 52.02045874 -125.22808117 67.51614623 -127.5625 84.40234375 C-129.56698712 106.91250374 -126.47881181 130.63002455 -112.22265625 148.8359375 C-104.61829879 157.19757537 -93.77305607 162.04714298 -82.58984375 162.74609375 C-70.42807024 163.05259006 -59.67432722 161.40532842 -50.33984375 153.15625 C-44.71892688 146.77574977 -43.12473534 142.04907687 -40.02734375 133.53125 C-14.61734375 133.53125 10.79265625 133.53125 36.97265625 133.53125 C34.23096761 143.81258241 31.69641616 152.27315414 26.97265625 161.53125 C26.27849609 162.95050781 26.27849609 162.95050781 25.5703125 164.3984375 C12.75118934 189.46852323 -11.4467074 205.67554989 -37.515625 214.50390625 C-61.03579689 221.38466844 -88.18560814 222.3000529 -112.02734375 216.53125 C-112.73358887 216.36496094 -113.43983398 216.19867187 -114.16748047 216.02734375 C-133.8401463 211.24317822 -151.41143552 201.52824355 -166.02734375 187.53125 C-167.15269531 186.51804687 -167.15269531 186.51804687 -168.30078125 185.484375 C-186.84264218 168.17863813 -197.24941248 141.35224627 -200.02734375 116.53125 C-200.13691406 115.644375 -200.24648437 114.7575 -200.359375 113.84375 C-203.88191926 80.02732507 -197.72563991 44.98448314 -176.33984375 17.78125 C-174.60640558 15.65978653 -172.83084907 13.59519941 -171.02734375 11.53125 C-170.4240625 10.83902344 -169.82078125 10.14679688 -169.19921875 9.43359375 C-127.69858158 -34.78674537 -46.3927294 -36.46481019 0 0 Z " fill="#9EAF82" transform="translate(2787.02734375,391.46875)"/>
<path d="M0 0 C1.24132187 0.00222061 2.48264374 0.00444122 3.76158142 0.00672913 C4.44447739 0.0065831 5.12737335 0.00643707 5.83096313 0.00628662 C8.09815092 0.00698575 10.36525752 0.01477811 12.63243103 0.02259827 C14.20041865 0.02446245 15.76840685 0.02588635 17.33639526 0.02688599 C21.47103981 0.03071117 25.60564944 0.04054146 29.74028015 0.05158997 C33.95627876 0.06180407 38.172283 0.0663836 42.38829041 0.07142639 C50.66630125 0.08216373 58.94428368 0.09924015 67.22227478 0.12025452 C67.22724 2.05510397 67.22724 2.05510397 67.23230553 4.02904129 C67.3112868 34.63398088 67.40049283 65.23887161 67.50232639 95.84374304 C67.51484558 99.60892761 67.52727831 103.37411246 67.53965759 107.13929749 C67.54212359 107.88889255 67.54458958 108.63848762 67.5471303 109.41079769 C67.5868771 121.55545321 67.61961593 133.70011806 67.6497746 145.84480074 C67.68086522 158.30210484 67.71946434 170.75936927 67.76506484 183.21662879 C67.79297558 190.90626463 67.81499738 198.59587137 67.82953729 206.28554431 C67.8413045 212.17742137 67.86350753 218.06922973 67.88965797 223.96106148 C67.89875343 226.3814318 67.90442854 228.80181767 67.90648842 231.22220421 C67.90979704 234.51834868 67.92523666 237.81421719 67.94380188 241.11030579 C67.94089978 242.55777077 67.94089978 242.55777077 67.93793905 244.03447747 C67.94540454 244.91677396 67.95287003 245.79907044 67.96056175 246.70810318 C67.96284007 247.46906272 67.9651184 248.23002226 67.96746576 249.01404119 C68.26886469 251.50535978 68.82806984 253.03033026 70.22227478 255.12025452 C78.32165747 259.16994586 88.17543649 257.72691372 97.22227478 258.12025452 C97.22227478 276.93025452 97.22227478 295.74025452 97.22227478 315.12025452 C89.74336609 315.18343679 82.26544296 315.24350902 74.78649902 315.27550507 C71.30257056 315.29124514 67.81886664 315.3122228 64.33506775 315.34657288 C60.32349161 315.38587229 56.31214747 315.40004873 52.30039978 315.41322327 C51.07178223 315.42870712 49.84316467 315.44419098 48.57731628 315.46014404 C40.69415089 315.46165742 33.76215401 314.4021757 26.22227478 312.12025452 C25.33509766 311.86136948 24.44792053 311.60248444 23.53385925 311.33575439 C14.89449795 308.66163107 7.39510764 301.86918005 2.42149353 294.42494202 C1.17653331 292.02316036 0.14405646 289.6617383 -0.77772522 287.12025452 C-1.19022522 285.98587952 -1.60272522 284.85150452 -2.02772522 283.68275452 C-3.83404233 275.10274823 -3.92400508 266.36702234 -3.90470886 257.62986755 C-3.90626885 256.52678241 -3.90782884 255.42369727 -3.90943611 254.28718531 C-3.91339978 250.62003692 -3.9102746 246.9529305 -3.90711975 243.28578186 C-3.90847577 240.64542013 -3.91022084 238.00506121 -3.91242981 235.36470032 C-3.91686003 228.95763355 -3.91592373 222.55057855 -3.91301717 216.14351134 C-3.91075428 210.93926176 -3.91045444 205.73501546 -3.91154099 200.53076553 C-3.91169422 199.78874783 -3.91184745 199.04673013 -3.91200533 198.28222705 C-3.91232506 196.77473365 -3.91264927 195.26724026 -3.91297792 193.75974686 C-3.91582414 179.65126281 -3.91255813 165.54278527 -3.90717755 151.43430229 C-3.90270103 139.32066463 -3.90349407 127.20703654 -3.90809631 115.09339905 C-3.91344131 101.0181982 -3.91555926 86.94300303 -3.91248405 72.86780131 C-3.9121655 71.36906282 -3.91185113 69.87032433 -3.91154099 68.37158585 C-3.91138671 67.63418987 -3.91123243 66.8967939 -3.91107348 66.13705259 C-3.91020879 60.93212501 -3.91166999 55.72720104 -3.91402054 50.52227402 C-3.91710869 43.53074987 -3.91492795 36.53924421 -3.90912628 29.54772186 C-3.90779792 26.97449143 -3.90819408 24.40125947 -3.91038895 21.82802963 C-3.91309717 18.33226703 -3.90972351 14.83656381 -3.90470886 11.34080505 C-3.90693958 10.30844707 -3.90917031 9.27608908 -3.91146863 8.21244752 C-3.90886088 7.28369015 -3.90625313 6.35493277 -3.90356636 5.39803123 C-3.90340401 4.59025337 -3.90324166 3.7824755 -3.90307438 2.95021951 C-3.69503089 -0.08699511 -3.07036398 0.13292356 0 0 Z " fill="#9EAF82" transform="translate(2317.7777252197266,290.87974548339844)"/>
<path d="M0 0 C23.1 0 46.2 0 70 0 C70 77.22 70 154.44 70 234 C46.9 234 23.8 234 0 234 C0 156.78 0 79.56 0 0 Z " fill="#9EAF82" transform="translate(2464,372)"/>
<path d="M0 0 C-0.46375122 7.92443545 -1.51015643 15.38033424 -3.5 23.0625 C-3.76280762 24.08561279 -4.02561523 25.10872559 -4.29638672 26.1628418 C-17.70020199 76.93987379 -42.12729372 121.86631996 -77 161 C-86.70256165 149.24361144 -94.99529249 136.16985249 -103.4375 123.5 C-104.44067261 122.02297607 -104.44067261 122.02297607 -105.46411133 120.51611328 C-106.37713013 119.13141846 -106.37713013 119.13141846 -107.30859375 117.71875 C-107.85314209 116.90341797 -108.39769043 116.08808594 -108.95874023 115.24804688 C-110 113 -110 113 -109.81640625 110.92675781 C-108.94551216 108.87140608 -107.95212462 107.25083449 -106.62890625 105.453125 C-106.14204346 104.78152344 -105.65518066 104.10992188 -105.15356445 103.41796875 C-104.62851318 102.70253906 -104.10346191 101.98710938 -103.5625 101.25 C-82.64310841 72.12955757 -68.72396478 40.93727607 -59.67333984 6.25537109 C-59 4 -59 4 -58 3 C-54.92032536 2.69526544 -51.85638972 2.45042758 -48.76953125 2.24609375 C-47.35651985 2.14833397 -47.35651985 2.14833397 -45.91496277 2.04859924 C-43.90838923 1.91105132 -41.90165254 1.77586693 -39.89477539 1.64282227 C-36.87008573 1.44133601 -33.84620095 1.23004944 -30.82226562 1.01757812 C-20.52966334 0.3122467 -10.32149104 -0.23075371 0 0 Z " fill="#00EAAB" transform="translate(934,474)"/>
<path d="M0 0 C8.74765492 8.5510784 12.39565598 17.52033342 12.5625 29.75 C11.82180973 38.81659751 8.50960551 47.39660121 1.75 53.625 C-8.60204073 61.80676132 -21.16328252 64.83157015 -34.2734375 63.31640625 C-45.86192735 61.2419235 -55.01188066 57.01085636 -61.875 47.1875 C-67.5325046 38.40305554 -68.56157783 27.66164305 -66.4375 17.5625 C-63.96848207 9.1052757 -59.03122441 2.00198875 -51.7421875 -3.00390625 C-35.86199721 -11.58997524 -14.15666696 -12.14625272 0 0 Z " fill="#9EAF82" transform="translate(2526.4375,293.25)"/>
<path d="M0 0 C18 0 18 0 21.9375 3.875 C22.99494848 5.89794493 24.00974959 7.94332608 25 10 C26.29761396 12.20762895 27.64384238 14.38077383 28.99633789 16.55517578 C30.37308353 18.77130946 31.71665155 21.00486956 33.05859375 23.2421875 C36.56661774 28.91652113 40.29950962 34.44926442 44 40 C44.33 26.8 44.66 13.6 45 0 C50.94 0 56.88 0 63 0 C63 24.09 63 48.18 63 73 C44 73 44 73 39.9765625 69.58203125 C38.72167969 67.30786133 38.72167969 67.30786133 37.625 64.8125 C36.70774889 63.0822611 35.78839294 61.35313679 34.8671875 59.625 C34.41182617 58.71234375 33.95646484 57.7996875 33.48730469 56.859375 C30.87154594 51.83052299 27.77558086 47.10129816 24.75 42.3125 C22.8525 39.239375 20.955 36.16625 19 33 C18.67 46.2 18.34 59.4 18 73 C12.06 73 6.12 73 0 73 C0 48.91 0 24.82 0 0 Z " fill="#9EAF82" transform="translate(1878,723)"/>
<path d="M0 0 C7.25661049 6.11449521 11.24432572 14.3937216 12.26269531 23.82128906 C13.15401618 36.70900405 11.71644906 48.54205977 3.08984375 58.7421875 C-5.11828145 66.62261189 -14.58370807 69.1486696 -25.76000977 69.07617188 C-35.61957196 68.81358223 -43.80962762 66.08043463 -50.98828125 59.13671875 C-60.40734235 47.59557669 -61.03402738 34.94052127 -59.96484375 20.71484375 C-58.28041921 12.13871653 -53.84806129 5.49310946 -47.65234375 -0.53515625 C-33.06261477 -10.03544489 -14.2593873 -10.28587197 0 0 Z M-36.71484375 14.65234375 C-41.42129683 21.05834933 -42.49659702 27.29602476 -41.71875 35.22265625 C-40.33091518 42.46887346 -37.08706448 47.47638324 -30.96484375 51.71484375 C-25.98404992 53.37510836 -21.66210746 53.313878 -16.77734375 51.58984375 C-11.87174905 48.31944728 -8.73531692 44.31611949 -6.96484375 38.71484375 C-6.22264074 30.52471983 -5.43422637 21.41247213 -10.96484375 14.71484375 C-14.85624565 10.69135771 -18.10838645 8.83657865 -23.77734375 8.46484375 C-29.32884457 8.56651959 -33.0861465 10.4735233 -36.71484375 14.65234375 Z " fill="#9EAF82" transform="translate(2099.96484375,729.28515625)"/>
<path d="M0 0 C5.61 0 11.22 0 17 0 C18 1 18 1 18.11352539 3.68383789 C18.10828857 4.85164795 18.10305176 6.01945801 18.09765625 7.22265625 C18.09443359 8.48271484 18.09121094 9.74277344 18.08789062 11.04101562 C18.07953403 12.38151109 18.07106907 13.72200588 18.0625 15.0625 C18.0574866 16.40689942 18.05292342 17.7513006 18.04882812 19.09570312 C18.03699497 22.39715433 18.01905886 25.6985826 18 29 C26.58 29 35.16 29 44 29 C44 19.43 44 9.86 44 0 C49.94 0 55.88 0 62 0 C62 24.09 62 48.18 62 73 C56.06 73 50.12 73 44 73 C44 63.76 44 54.52 44 45 C35.42 45 26.84 45 18 45 C18 54.24 18 63.48 18 73 C12.06 73 6.12 73 0 73 C0 48.91 0 24.82 0 0 Z " fill="#9EAF82" transform="translate(2379,723)"/>
<path d="M0 0 C16.5 0 33 0 50 0 C50 5.61 50 11.22 50 17 C39.44 17 28.88 17 18 17 C18 20.96 18 24.92 18 29 C27.57 29 37.14 29 47 29 C47 34.28 47 39.56 47 45 C37.43 45 27.86 45 18 45 C18 48.96 18 52.92 18 57 C28.56 57 39.12 57 50 57 C50 62.28 50 67.56 50 73 C33.5 73 17 73 0 73 C0 48.91 0 24.82 0 0 Z " fill="#9EAF82" transform="translate(2213,723)"/>
<path d="M0 0 C8.07188414 6.63688252 10.81482588 11.97159865 12.8125 22.3125 C6.2125 22.3125 -0.3875 22.3125 -7.1875 22.3125 C-8.1775 20.3325 -9.1675 18.3525 -10.1875 16.3125 C-12.29241154 13.6584811 -13.83957821 12.77748914 -17.1875 12.3125 C-22.44274862 11.92322232 -25.73287863 12.441744 -30.1875 15.3125 C-36.45938477 21.93282282 -36.71355948 28.7418397 -36.50390625 37.41015625 C-35.99113506 43.7343342 -34.28371915 47.31853544 -29.625 51.75 C-24.29165661 55.16880987 -18.80018629 54.84471387 -12.8125 53.625 C-10.00671178 52.53682884 -10.00671178 52.53682884 -8.875 49.875 C-8.648125 49.029375 -8.42125 48.18375 -8.1875 47.3125 C-7.8575 46.3225 -7.5275 45.3325 -7.1875 44.3125 C-0.5875 44.3125 6.0125 44.3125 12.8125 44.3125 C11.12764141 53.97235591 8.43315088 59.96395777 0.8125 66.3125 C-2.09571795 68.06114141 -4.94488139 69.32669434 -8.1875 70.3125 C-8.78691406 70.50199219 -9.38632813 70.69148437 -10.00390625 70.88671875 C-21.03251472 73.03719876 -32.24418915 71.46374156 -41.875 65.75 C-48.75536142 60.81805951 -53.67639558 53.55259501 -55.75 45.3359375 C-57.68633453 31.95448283 -57.04317603 18.81420839 -49.0625 7.4375 C-36.94083655 -6.86450548 -16.00622534 -8.473884 0 0 Z " fill="#9EAF82" transform="translate(2342.1875,726.6875)"/>
<path d="M0 0 C45.05357143 0 45.05357143 0 52.40625 6.328125 C57.92819956 12.12075836 57.52155572 18.73539378 57.34765625 26.39453125 C56.74009026 32.69546841 54.71798301 36.7078475 50 40.875 C42.67842536 46.06111537 35.86739551 46.1474141 27.125 46.0625 C24.11375 46.041875 21.1025 46.02125 18 46 C18 54.91 18 63.82 18 73 C12.06 73 6.12 73 0 73 C0 48.91 0 24.82 0 0 Z M18 17 C18 21.29 18 25.58 18 30 C20.73083902 30.13548815 23.45491807 30.23429855 26.1875 30.3125 C26.95642578 30.35439453 27.72535156 30.39628906 28.51757812 30.43945312 C32.83190073 30.53203516 34.4949385 30.38413128 38.05078125 27.6796875 C40.31250345 25.12265859 40.31250345 25.12265859 40 21.8125 C39.21262767 18.70976172 39.21262767 18.70976172 36 17 C33.97078331 16.72598982 33.97078331 16.72598982 31.76953125 16.8046875 C30.96708984 16.81113281 30.16464844 16.81757812 29.33789062 16.82421875 C28.50451172 16.84097656 27.67113281 16.85773437 26.8125 16.875 C25.5450293 16.88853516 25.5450293 16.88853516 24.25195312 16.90234375 C22.16784757 16.92589297 20.08388783 16.96176353 18 17 Z " fill="#9EAF82" transform="translate(2649,723)"/>
<path d="M0 0 C16.5 0 33 0 50 0 C50 5.61 50 11.22 50 17 C39.44 17 28.88 17 18 17 C18 20.96 18 24.92 18 29 C27.57 29 37.14 29 47 29 C47 34.28 47 39.56 47 45 C37.43 45 27.86 45 18 45 C18 54.24 18 63.48 18 73 C12.06 73 6.12 73 0 73 C0 48.91 0 24.82 0 0 Z " fill="#9EAF82" transform="translate(1968,723)"/>
<path d="M0 0 C19.14 0 38.28 0 58 0 C58 5.61 58 11.22 58 17 C51.4 17 44.8 17 38 17 C38 35.48 38 53.96 38 73 C32.06 73 26.12 73 20 73 C20 54.52 20 36.04 20 17 C13.4 17 6.8 17 0 17 C0 11.39 0 5.78 0 0 Z " fill="#9EAF82" transform="translate(2132,723)"/>
<path d="M0 0 C5.94 0 11.88 0 18 0 C18 18.81 18 37.62 18 57 C27.57 57 37.14 57 47 57 C47 62.28 47 67.56 47 73 C31.49 73 15.98 73 0 73 C0 48.91 0 24.82 0 0 Z " fill="#9EAF82" transform="translate(2579,723)"/>
<path d="M0 0 C5.61 0 11.22 0 17 0 C18 1 18 1 18.12025452 3.24623108 C18.1169236 4.73515114 18.1169236 4.73515114 18.11352539 6.25415039 C18.11344986 7.37523697 18.11337433 8.49632355 18.11329651 9.65138245 C18.10813522 10.8711528 18.10297394 12.09092316 18.09765625 13.34765625 C18.0962413 14.58921982 18.09482635 15.83078339 18.09336853 17.10997009 C18.08870591 20.41605491 18.07971497 23.72207146 18.06866455 27.02813721 C18.05844827 30.39961139 18.05381574 33.77109282 18.04882812 37.14257812 C18.03862279 43.76175739 18.01905106 50.38081653 18 57 C27.57 57 37.14 57 47 57 C47 62.28 47 67.56 47 73 C31.49 73 15.98 73 0 73 C0 48.91 0 24.82 0 0 Z " fill="#9EAF82" transform="translate(2510,723)"/>
<path d="M0 0 C5.94 0 11.88 0 18 0 C18 24.09 18 48.18 18 73 C12.06 73 6.12 73 0 73 C0 48.91 0 24.82 0 0 Z " fill="#9EAF82" transform="translate(1833,723)"/>
</svg>
